<?xml version="1.0" encoding="UTF-8"?>
<svg xmlns="http://www.w3.org/2000/svg" xmlns:xlink="http://www.w3.org/1999/xlink" width="0" height="0">
<symbol id="facebook" width="24" height="24" ><g clip-path="url(#a)"><path d="M15.997 3.985h2.191V.169C17.81.117 16.51 0 14.996 0c-3.159 0-5.323 1.987-5.323 5.639V9H6.187v4.266h3.486V24h4.274V13.267h3.345l.531-4.266h-3.877V6.062c.001-1.233.333-2.077 2.051-2.077Z"/></g><defs><clipPath><path d="M0 0h24v24H0z"/></clipPath></defs></symbol><symbol id="instagram" width="24" height="24" ><g clip-path="url(#a)"><path d="M23.977 7.056c-.057-1.275-.263-2.152-.558-2.912a5.857 5.857 0 0 0-1.388-2.128A5.905 5.905 0 0 0 19.907.633C19.143.338 18.27.13 16.995.075 15.711.015 15.303 0 12.046 0 8.785 0 8.377.014 7.097.07 5.823.127 4.946.333 4.187.628a5.856 5.856 0 0 0-2.129 1.388A5.909 5.909 0 0 0 .675 4.14C.38 4.904.173 5.776.117 7.05.057 8.336.042 8.744.042 12.002c0 3.259.014 3.667.07 4.947.057 1.275.263 2.151.559 2.911a5.919 5.919 0 0 0 1.387 2.129c.6.61 1.327 1.083 2.124 1.383.764.295 1.636.501 2.912.558 1.28.056 1.687.07 4.946.07 3.258 0 3.666-.014 4.946-.07 1.275-.057 2.152-.263 2.912-.558a6.139 6.139 0 0 0 3.511-3.512c.296-.764.502-1.636.558-2.911.056-1.28.07-1.688.07-4.947 0-3.258-.004-3.666-.06-4.946Zm-2.162 9.799c-.051 1.172-.248 1.805-.412 2.227a3.981 3.981 0 0 1-2.279 2.278c-.422.165-1.06.361-2.227.413-1.266.056-1.645.07-4.848.07-3.202 0-3.586-.014-4.848-.07-1.172-.052-1.805-.248-2.227-.413a3.693 3.693 0 0 1-1.378-.895 3.73 3.73 0 0 1-.896-1.378c-.164-.422-.36-1.06-.412-2.227-.056-1.266-.07-1.646-.07-4.848 0-3.203.014-3.587.07-4.848.052-1.172.248-1.805.412-2.227.193-.52.498-.994.9-1.379a3.726 3.726 0 0 1 1.38-.895c.421-.164 1.059-.36 2.226-.413 1.266-.056 1.646-.07 4.848-.07 3.207 0 3.586.014 4.848.07 1.172.052 1.805.249 2.227.413.52.192.994.497 1.378.895.399.39.703.858.896 1.379.164.422.36 1.06.412 2.227.056 1.266.07 1.645.07 4.848 0 3.202-.014 3.577-.07 4.843Z"/><path d="M12.044 5.837a6.167 6.167 0 0 0-6.165 6.165 6.167 6.167 0 0 0 6.165 6.166 6.167 6.167 0 0 0 6.166-6.166 6.167 6.167 0 0 0-6.166-6.165Zm0 10.165a4 4 0 1 1 .002-8 4 4 0 0 1-.002 8ZM19.893 5.593a1.44 1.44 0 1 1-2.879 0 1.44 1.44 0 0 1 2.879 0Z"/></g><defs><clipPath><path d="M0 0h24v24H0z"/></clipPath></defs></symbol><symbol id="linkedin" width="24" height="24" ><g clip-path="url(#a)"><path d="M23.994 24H24v-8.803c0-4.306-.927-7.623-5.961-7.623-2.42 0-4.044 1.328-4.707 2.587h-.07V7.976H8.489V24h4.97v-7.934c0-2.089.396-4.109 2.983-4.109 2.549 0 2.587 2.384 2.587 4.243V24h4.965ZM.396 7.977h4.976V24H.396V7.977ZM2.882 0A2.883 2.883 0 0 0 0 2.882c0 1.591 1.291 2.909 2.882 2.909 1.591 0 2.882-1.318 2.882-2.909A2.884 2.884 0 0 0 2.882 0Z"/></g><defs><clipPath><path d="M0 0h24v24H0z"/></clipPath></defs></symbol><symbol id="twitter" width="24" height="24" ><g clip-path="url(#a)"><path d="M24 4.559c-.892.391-1.843.65-2.835.776a4.893 4.893 0 0 0 2.165-2.719 9.833 9.833 0 0 1-3.12 1.191 4.919 4.919 0 0 0-8.511 3.365c0 .39.033.764.114 1.121-4.091-.199-7.71-2.16-10.142-5.146a4.954 4.954 0 0 0-.673 2.487c0 1.704.877 3.214 2.185 4.089A4.859 4.859 0 0 1 .96 9.117v.054a4.943 4.943 0 0 0 3.942 4.835c-.4.109-.837.162-1.29.162a4.35 4.35 0 0 1-.932-.084c.638 1.948 2.447 3.38 4.598 3.427a9.886 9.886 0 0 1-6.1 2.099c-.404 0-.791-.018-1.178-.068a13.852 13.852 0 0 0 7.548 2.208c9.054 0 14.004-7.5 14.004-14.001 0-.217-.008-.427-.018-.636A9.816 9.816 0 0 0 24 4.559Z"/></g><defs><clipPath><path d="M0 0h24v24H0z"/></clipPath></defs></symbol></svg>
